<svg id="visual" viewBox="0 0 900 600" width="900" height="600" xmlns="http://www.w3.org/2000/svg" xmlns:xlink="http://www.w3.org/1999/xlink" version="1.1"><rect x="0" y="0" width="900" height="600" fill="#78e08f"></rect><defs><linearGradient id="grad1_0" x1="33.3%" y1="0%" x2="100%" y2="100%"><stop offset="20%" stop-color="#78e08f" stop-opacity="1"></stop><stop offset="80%" stop-color="#78e08f" stop-opacity="1"></stop></linearGradient></defs><defs><linearGradient id="grad2_0" x1="0%" y1="0%" x2="66.7%" y2="100%"><stop offset="20%" stop-color="#78e08f" stop-opacity="1"></stop><stop offset="80%" stop-color="#78e08f" stop-opacity="1"></stop></linearGradient></defs><g transform="translate(900, 0)"><path d="M0 486.7C-64.8 482 -129.6 477.3 -186.3 449.7C-242.9 422.1 -291.5 371.6 -318.2 318.2C-344.9 264.8 -349.7 208.5 -374.2 155C-398.6 101.5 -442.7 50.7 -486.7 0L0 0Z" fill="#ffffff"></path></g><g transform="translate(0, 600)"><path d="M0 -486.7C62.8 -479.9 125.5 -473 186.3 -449.7C247 -426.4 305.7 -386.6 333.8 -333.8C361.8 -280.9 359.3 -215.1 379.7 -157.3C400.1 -99.5 443.4 -49.7 486.7 0L0 0Z" fill="#ffffff"></path></g></svg>